# xmcd CD database file
# Copyright (C) 1995-1998 Ti Kan
#
# Track frame offsets:
#	150
#	13662
#	25445
#	38556
#	51530
#	65195
#	77180
#	88487
#	100530
#	112400
#	126170
#	139140
#	152022
#	163720
#	175362
#	188419
#	199609
#	211877
#	224417
#	236404
#	246722
#	258482
#	269474
#	279954
#	290409
#	301294
#	311734
#	325684
#	336872
#
# Disc length: 4634 seconds
#
# Revision: 1
# Processed by: cddbd v1.4PL0 Copyright (c) Steve Scherf et al.
# Submitted via: CDex 1.30Release
#
DISCID=bd12181d
DTITLE=Robert Johnson - The Complete Collection
DYEAR=1998
DGENRE=Blues
TTITLE0=I believe I'll dust my broom
TTITLE1=Phonograph Blues
TTITLE2=Ramblin on my mind
TTITLE3=Kindhearted woman blues
TTITLE4=Terraplane blues
TTITLE5=I'm a steady rollin man
TTITLE6=Walking blues
TTITLE7=Last fair deal gone down
TTITLE8=Dead shrimp blues
TTITLE9=Sweet home Chicago
TTITLE10=32-20 Blues
TTITLE11=Come on in my kitchen
TTITLE12=If I had possesion over Judgement Day
TTITLE13=Me and the Devil blues
TTITLE14=Preaching blues(Up jumped the Devil)
TTITLE15=Stones in my passway
TTITLE16=Cross road blues
TTITLE17=Traveling Riverside blues
TTITLE18=When you got a good friend
TTITLE19=Milkcow's calf blues
TTITLE20=Hellhound on my trail
TTITLE21=From four til late
TTITLE22=Honeymoon blues
TTITLE23=Stop breakin down blues
TTITLE24=Malted milk
TTITLE25=Little Queen of spades
TTITLE26=They're red hot
TTITLE27=Drunken hearted man
TTITLE28=Love in Vain
EXTD=YEAR: 1998 ID3G:   0
EXTT0=
EXTT1=
EXTT2=
EXTT3=
EXTT4=
EXTT5=
EXTT6=
EXTT7=
EXTT8=
EXTT9=
EXTT10=
EXTT11=
EXTT12=
EXTT13=
EXTT14=
EXTT15=
EXTT16=
EXTT17=
EXTT18=
EXTT19=
EXTT20=
EXTT21=
EXTT22=
EXTT23=
EXTT24=
EXTT25=
EXTT26=
EXTT27=
EXTT28=
PLAYORDER=
